<svg width="15" height="15" viewBox="0 0 15 15" fill="none" xmlns="http://www.w3.org/2000/svg">
<path d="M7.50044 2.36982C7.61683 2.36982 7.72846 2.32358 7.81076 2.24128C7.89306 2.15898 7.93929 2.04735 7.93929 1.93096V0.438855C7.93929 0.322463 7.89306 0.210839 7.81076 0.128538C7.72846 0.0462364 7.61683 0 7.50044 0C7.38405 0 7.27242 0.0462364 7.19012 0.128538C7.10782 0.210839 7.06158 0.322463 7.06158 0.438855V1.93096C7.06158 2.04735 7.10782 2.15898 7.19012 2.24128C7.27242 2.32358 7.38405 2.36982 7.50044 2.36982Z" fill="black"/>
<path d="M7.50044 12.6304C7.38405 12.6304 7.27242 12.6766 7.19012 12.7589C7.10782 12.8412 7.06158 12.9528 7.06158 13.0692V14.5613C7.06158 14.6777 7.10782 14.7893 7.19012 14.8717C7.27242 14.954 7.38405 15.0002 7.50044 15.0002C7.61683 15.0002 7.72846 14.954 7.81076 14.8717C7.89306 14.7893 7.93929 14.6777 7.93929 14.5613V13.0692C7.93929 12.9528 7.89306 12.8412 7.81076 12.7589C7.72846 12.6766 7.61683 12.6304 7.50044 12.6304Z" fill="black"/>
<path d="M3.25204 3.87521C3.33364 3.94939 3.44018 3.99013 3.55046 3.98932C3.60822 3.98965 3.66547 3.97858 3.71894 3.95674C3.77241 3.9349 3.82104 3.90272 3.86205 3.86205C3.90318 3.82125 3.93583 3.77271 3.95811 3.71923C3.98039 3.66576 3.99186 3.60839 3.99186 3.55046C3.99186 3.49253 3.98039 3.43517 3.95811 3.38169C3.93583 3.32821 3.90318 3.27967 3.86205 3.23887L2.81757 2.19879C2.73362 2.12689 2.62563 2.08932 2.51518 2.09359C2.40473 2.09786 2.29996 2.14364 2.2218 2.2218C2.14364 2.29996 2.09786 2.40473 2.09359 2.51518C2.08932 2.62563 2.12689 2.73362 2.19879 2.81757L3.25204 3.87521Z" fill="black"/>
<path d="M11.7483 11.1252C11.7074 11.0842 11.6588 11.0518 11.6054 11.0296C11.5519 11.0075 11.4946 10.9961 11.4367 10.9961C11.3789 10.9961 11.3216 11.0075 11.2681 11.0296C11.2147 11.0518 11.1661 11.0842 11.1252 11.1252C11.0842 11.1661 11.0518 11.2147 11.0296 11.2681C11.0075 11.3216 10.9961 11.3789 10.9961 11.4367C10.9961 11.4946 11.0075 11.5519 11.0296 11.6054C11.0518 11.6588 11.0842 11.7074 11.1252 11.7483L12.1828 12.8016C12.2234 12.843 12.2719 12.876 12.3254 12.8986C12.3789 12.9212 12.4363 12.933 12.4944 12.9332C12.6101 12.9316 12.7206 12.8843 12.8016 12.8016C12.8833 12.7194 12.9292 12.6081 12.9292 12.4922C12.9292 12.3763 12.8833 12.265 12.8016 12.1828L11.7483 11.1252Z" fill="black"/>
<path d="M2.36982 7.49989C2.36982 7.3835 2.32358 7.27187 2.24128 7.18957C2.15898 7.10727 2.04735 7.06104 1.93096 7.06104H0.438855C0.322463 7.06104 0.210839 7.10727 0.128538 7.18957C0.0462364 7.27187 0 7.3835 0 7.49989C0 7.61628 0.0462364 7.72791 0.128538 7.81021C0.210839 7.89251 0.322463 7.93875 0.438855 7.93875H1.93096C2.04735 7.93875 2.15898 7.89251 2.24128 7.81021C2.32358 7.72791 2.36982 7.61628 2.36982 7.49989Z" fill="black"/>
<path d="M14.5608 7.06104H13.0687C12.9523 7.06104 12.8407 7.10727 12.7584 7.18957C12.6761 7.27187 12.6299 7.3835 12.6299 7.49989C12.6299 7.61628 12.6761 7.72791 12.7584 7.81021C12.8407 7.89251 12.9523 7.93875 13.0687 7.93875H14.5608C14.6772 7.93875 14.7889 7.89251 14.8712 7.81021C14.9535 7.72791 14.9997 7.61628 14.9997 7.49989C14.9997 7.3835 14.9535 7.27187 14.8712 7.18957C14.7889 7.10727 14.6772 7.06104 14.5608 7.06104Z" fill="black"/>
<path d="M3.25143 11.1252L2.19818 12.1828C2.13655 12.2439 2.09443 12.3219 2.07715 12.407C2.05987 12.492 2.06819 12.5803 2.10107 12.6606C2.13395 12.741 2.18991 12.8097 2.26188 12.8583C2.33384 12.9068 2.41858 12.9329 2.50537 12.9332C2.56344 12.933 2.62088 12.9212 2.67436 12.8986C2.72785 12.876 2.77632 12.843 2.81696 12.8016L3.8746 11.7483C3.95724 11.6657 4.00367 11.5536 4.00367 11.4367C4.00367 11.3199 3.95724 11.2078 3.8746 11.1252C3.79196 11.0425 3.67988 10.9961 3.56301 10.9961C3.44615 10.9961 3.33407 11.0425 3.25143 11.1252Z" fill="black"/>
<path d="M11.4497 3.98942C11.5075 3.98975 11.5647 3.97868 11.6182 3.95684C11.6716 3.935 11.7203 3.90282 11.7613 3.86215L12.8145 2.80451C12.8963 2.72228 12.9422 2.61105 12.9422 2.49511C12.9422 2.37917 12.8963 2.26795 12.8145 2.18572C12.7323 2.10398 12.6211 2.05811 12.5051 2.05811C12.3892 2.05811 12.278 2.10398 12.1958 2.18572L11.1381 3.23897C11.097 3.27977 11.0643 3.32831 11.0421 3.38179C11.0198 3.43527 11.0083 3.49263 11.0083 3.55056C11.0083 3.60849 11.0198 3.66586 11.0421 3.71933C11.0643 3.77281 11.097 3.82135 11.1381 3.86215C11.1791 3.90282 11.2278 3.935 11.2812 3.95684C11.3347 3.97868 11.3919 3.98975 11.4497 3.98942Z" fill="black"/>
<path d="M7.55685 3.00183C6.67525 2.99052 5.8102 3.2416 5.07166 3.72316C4.33312 4.20472 3.75445 4.89501 3.4092 5.70627C3.06396 6.51754 2.96774 7.41314 3.13278 8.27922C3.29782 9.14531 3.71666 9.94277 4.33605 10.5702C4.95545 11.1977 5.74743 11.6268 6.61131 11.803C7.47519 11.9792 8.37196 11.8945 9.18762 11.5598C10.0033 11.2251 10.701 10.6554 11.192 9.9231C11.6831 9.19084 11.9453 8.3291 11.9454 7.44743C11.9512 6.27647 11.4926 5.15095 10.6699 4.31762C9.84729 3.48428 8.7278 3.01111 7.55685 3.00183ZM7.55685 11.0109C6.84868 11.0223 6.15317 10.8226 5.55888 10.4373C4.96459 10.052 4.49841 9.49853 4.21973 8.8474C3.94104 8.19627 3.86245 7.47694 3.99396 6.781C4.12548 6.08505 4.46114 5.444 4.95821 4.93947C5.45529 4.43494 6.09127 4.08977 6.78518 3.94791C7.47909 3.80605 8.19952 3.87392 8.85472 4.14288C9.50992 4.41185 10.0702 4.86973 10.4643 5.45822C10.8584 6.04671 11.0685 6.73917 11.0677 7.44743C11.0724 8.38486 10.7057 9.286 10.0477 9.95379C9.38983 10.6216 8.49425 11.0017 7.55685 11.0109Z" fill="black"/>
</svg>
